<mxfile host="Electron" modified="2024-02-09T05:31:50.585Z" agent="Mozilla/5.0 (X11; Linux x86_64) AppleWebKit/537.36 (KHTML, like Gecko) draw.io/22.1.21 Chrome/120.0.6099.109 Electron/28.1.0 Safari/537.36" etag="LSiYYCuE91OFj5GoYj8J" version="22.1.21" type="device">
  <diagram name="Page-1" id="UgkzKDdlbD2YLOSZ790F">
    <mxGraphModel dx="579" dy="907" grid="0" gridSize="10" guides="1" tooltips="1" connect="1" arrows="1" fold="1" page="1" pageScale="1" pageWidth="850" pageHeight="1100" math="0" shadow="0">
      <root>
        <mxCell id="0" />
        <mxCell id="1" parent="0" />
        <mxCell id="WaaS-qGKVErQEOPKYESH-2" value="" style="group;fillColor=#232136;strokeColor=#232136;strokeWidth=25;container=0;movable=0;resizable=0;rotatable=0;deletable=0;editable=0;locked=1;connectable=0;" parent="1" vertex="1" connectable="0">
          <mxGeometry x="968" y="441" width="1068" height="482" as="geometry" />
        </mxCell>
        <mxCell id="WaaS-qGKVErQEOPKYESH-108" value="" style="rounded=1;whiteSpace=wrap;html=1;labelBackgroundColor=none;strokeColor=#FFFFFF;strokeWidth=3;align=left;verticalAlign=top;fontFamily=Helvetica;fontSize=18;fontColor=#FFFFFF;fillColor=none;arcSize=4;dashed=1;container=0;" parent="1" vertex="1">
          <mxGeometry x="992" y="520.5" width="339" height="356.5" as="geometry" />
        </mxCell>
        <mxCell id="p2dUplIc6F6vgKtV86H0-74" value="" style="rounded=1;whiteSpace=wrap;html=1;labelBackgroundColor=none;strokeColor=#FFFFFF;strokeWidth=3;align=left;verticalAlign=top;fontFamily=Helvetica;fontSize=18;fontColor=#FFFFFF;fillColor=none;arcSize=4;dashed=1;container=0;" parent="1" vertex="1">
          <mxGeometry x="1667" y="520.5" width="339" height="158" as="geometry" />
        </mxCell>
        <mxCell id="3aSCwRJMT3F2lno_R7aL-35" value="Looker A" style="rounded=1;whiteSpace=wrap;html=1;dashed=1;labelBackgroundColor=none;strokeColor=#FFFFFF;strokeWidth=3;align=center;verticalAlign=bottom;fontFamily=Helvetica;fontSize=18;fontColor=#FFFFFF;fillColor=none;fontStyle=1;container=0;" parent="1" vertex="1">
          <mxGeometry x="1375" y="456.5" width="110" height="220" as="geometry" />
        </mxCell>
        <mxCell id="WaaS-qGKVErQEOPKYESH-149" value="&lt;div style=&quot;text-align: center; font-size: 18px;&quot;&gt;&lt;span style=&quot;background-color: initial; font-size: 18px;&quot;&gt;&lt;b style=&quot;font-size: 18px;&quot;&gt;Contenedores Desplegados&lt;/b&gt;&lt;/span&gt;&lt;/div&gt;" style="text;whiteSpace=wrap;html=1;fontSize=18;fontFamily=Helvetica;fontColor=#FFFFFF;container=0;" parent="1" vertex="1">
          <mxGeometry x="990" y="492.5" width="247" height="40" as="geometry" />
        </mxCell>
        <mxCell id="p2dUplIc6F6vgKtV86H0-12" value="" style="rounded=1;whiteSpace=wrap;html=1;labelBackgroundColor=none;strokeColor=#DB918D;strokeWidth=3;align=left;verticalAlign=top;fontFamily=Helvetica;fontSize=18;fontColor=#FFFFFF;fillColor=none;arcSize=7;container=0;dashed=1;" parent="1" vertex="1">
          <mxGeometry x="1011.5" y="722.5" width="127.5" height="113" as="geometry" />
        </mxCell>
        <mxCell id="p2dUplIc6F6vgKtV86H0-16" value="termo" style="text;html=1;strokeColor=none;fillColor=none;align=left;verticalAlign=middle;whiteSpace=wrap;rounded=0;fontSize=18;fontFamily=Helvetica;fontColor=#FFFFFF;container=0;" parent="1" vertex="1">
          <mxGeometry x="1026.5" y="720.5" width="75" height="30" as="geometry" />
        </mxCell>
        <mxCell id="p2dUplIc6F6vgKtV86H0-19" value="" style="rounded=1;whiteSpace=wrap;html=1;labelBackgroundColor=none;strokeColor=#DB918D;strokeWidth=3;align=left;verticalAlign=top;fontFamily=Helvetica;fontSize=18;fontColor=#FFFFFF;fillColor=none;container=0;dashed=1;" parent="1" vertex="1">
          <mxGeometry x="1030.5" y="756.5" width="75" height="60" as="geometry" />
        </mxCell>
        <mxCell id="p2dUplIc6F6vgKtV86H0-20" value="" style="sketch=0;outlineConnect=0;dashed=0;verticalLabelPosition=bottom;verticalAlign=top;align=center;html=1;fontSize=18;fontStyle=0;aspect=fixed;pointerEvents=1;shape=mxgraph.aws4.iot_thing_temperature_sensor;rounded=1;labelBackgroundColor=none;strokeWidth=3;fontFamily=Helvetica;container=0;fillColor=#666666;" parent="1" vertex="1">
          <mxGeometry x="1043" y="761.5" width="50" height="50" as="geometry" />
        </mxCell>
        <mxCell id="p2dUplIc6F6vgKtV86H0-69" value="&lt;div style=&quot;text-align: center; font-size: 18px;&quot;&gt;&lt;span style=&quot;background-color: initial; font-size: 18px;&quot;&gt;&lt;b style=&quot;font-size: 18px;&quot;&gt;Estado Observado: Patio&lt;/b&gt;&lt;/span&gt;&lt;/div&gt;" style="text;whiteSpace=wrap;html=1;fontSize=18;fontFamily=Helvetica;fontColor=#FFFFFF;container=0;" parent="1" vertex="1">
          <mxGeometry x="1665" y="492.5" width="247" height="40" as="geometry" />
        </mxCell>
        <mxCell id="p2dUplIc6F6vgKtV86H0-70" value="&lt;div style=&quot;text-align: center;&quot;&gt;&lt;span style=&quot;background-color: initial;&quot;&gt;&lt;b&gt;Greenhouse&lt;/b&gt;&lt;/span&gt;&lt;/div&gt;" style="text;whiteSpace=wrap;html=1;fontSize=18;fontFamily=Helvetica;fontColor=#FFFFFF;container=0;" parent="1" vertex="1">
          <mxGeometry x="1684" y="522.5" width="126" height="40" as="geometry" />
        </mxCell>
        <mxCell id="p2dUplIc6F6vgKtV86H0-71" value="&lt;div style=&quot;text-align: center; font-size: 18px;&quot;&gt;&lt;span style=&quot;background-color: initial; font-size: 18px;&quot;&gt;&lt;b style=&quot;font-size: 18px;&quot;&gt;Estado Observado: House&lt;/b&gt;&lt;/span&gt;&lt;/div&gt;" style="text;whiteSpace=wrap;html=1;fontSize=18;fontFamily=Helvetica;fontColor=#FFFFFF;container=0;" parent="1" vertex="1">
          <mxGeometry x="1667.5" y="690.5" width="257.5" height="40" as="geometry" />
        </mxCell>
        <mxCell id="p2dUplIc6F6vgKtV86H0-73" value="" style="rounded=1;whiteSpace=wrap;html=1;labelBackgroundColor=none;strokeColor=#DB918D;strokeWidth=3;align=left;verticalAlign=top;fontFamily=Helvetica;fontSize=18;fontColor=#FFFFFF;fillColor=none;arcSize=7;container=0;" parent="1" vertex="1">
          <mxGeometry x="1684" y="552.5" width="307" height="113" as="geometry" />
        </mxCell>
        <mxCell id="p2dUplIc6F6vgKtV86H0-75" value="Requeridos" style="text;html=1;strokeColor=none;fillColor=none;align=left;verticalAlign=middle;whiteSpace=wrap;rounded=0;fontSize=18;fontFamily=Helvetica;fontColor=#FFFFFF;container=0;" parent="1" vertex="1">
          <mxGeometry x="1699" y="550.5" width="75" height="30" as="geometry" />
        </mxCell>
        <mxCell id="p2dUplIc6F6vgKtV86H0-76" value="" style="rounded=1;whiteSpace=wrap;html=1;labelBackgroundColor=none;strokeColor=#DB918D;strokeWidth=3;align=left;verticalAlign=top;fontFamily=Helvetica;fontSize=18;fontColor=#FFFFFF;fillColor=none;container=0;" parent="1" vertex="1">
          <mxGeometry x="1896.5" y="586.5" width="75" height="60" as="geometry" />
        </mxCell>
        <mxCell id="Ld625XTkxy1QWOUAyeHq-2" style="edgeStyle=orthogonalEdgeStyle;shape=connector;curved=0;rounded=1;orthogonalLoop=1;jettySize=auto;html=1;exitX=1;exitY=0.5;exitDx=0;exitDy=0;entryX=0;entryY=0.5;entryDx=0;entryDy=0;labelBackgroundColor=default;strokeColor=#DB918D;strokeWidth=4;align=center;verticalAlign=middle;fontFamily=Helvetica;fontSize=11;fontColor=default;endArrow=none;endFill=0;" parent="1" source="p2dUplIc6F6vgKtV86H0-77" target="p2dUplIc6F6vgKtV86H0-76" edge="1">
          <mxGeometry relative="1" as="geometry" />
        </mxCell>
        <mxCell id="p2dUplIc6F6vgKtV86H0-77" value="" style="rounded=1;whiteSpace=wrap;html=1;labelBackgroundColor=none;strokeColor=#DB918D;strokeWidth=3;align=left;verticalAlign=top;fontFamily=Helvetica;fontSize=18;fontColor=#FFFFFF;fillColor=none;container=0;" parent="1" vertex="1">
          <mxGeometry x="1801" y="586.5" width="75" height="60" as="geometry" />
        </mxCell>
        <mxCell id="Ld625XTkxy1QWOUAyeHq-1" style="edgeStyle=orthogonalEdgeStyle;shape=connector;curved=0;rounded=1;orthogonalLoop=1;jettySize=auto;html=1;exitX=1;exitY=0.5;exitDx=0;exitDy=0;entryX=0;entryY=0.5;entryDx=0;entryDy=0;labelBackgroundColor=default;strokeColor=#DB918D;strokeWidth=4;align=center;verticalAlign=middle;fontFamily=Helvetica;fontSize=11;fontColor=default;endArrow=none;endFill=0;" parent="1" source="p2dUplIc6F6vgKtV86H0-78" target="p2dUplIc6F6vgKtV86H0-77" edge="1">
          <mxGeometry relative="1" as="geometry" />
        </mxCell>
        <mxCell id="p2dUplIc6F6vgKtV86H0-78" value="" style="rounded=1;whiteSpace=wrap;html=1;labelBackgroundColor=none;strokeColor=#DB918D;strokeWidth=3;align=left;verticalAlign=top;fontFamily=Helvetica;fontSize=18;fontColor=#FFFFFF;fillColor=none;container=0;" parent="1" vertex="1">
          <mxGeometry x="1703" y="586.5" width="75" height="60" as="geometry" />
        </mxCell>
        <mxCell id="p2dUplIc6F6vgKtV86H0-79" value="" style="sketch=0;outlineConnect=0;dashed=0;verticalLabelPosition=bottom;verticalAlign=top;align=center;html=1;fontSize=18;fontStyle=0;aspect=fixed;pointerEvents=1;shape=mxgraph.aws4.iot_thing_temperature_sensor;rounded=1;labelBackgroundColor=none;strokeWidth=3;fontFamily=Helvetica;container=0;" parent="1" vertex="1">
          <mxGeometry x="1715.5" y="591.5" width="50" height="50" as="geometry" />
        </mxCell>
        <mxCell id="p2dUplIc6F6vgKtV86H0-80" value="" style="sketch=0;outlineConnect=0;fontColor=#232F3E;gradientColor=none;fillColor=#FFFFFF;strokeColor=none;dashed=0;verticalLabelPosition=bottom;verticalAlign=top;align=center;html=1;fontSize=12;fontStyle=0;aspect=fixed;pointerEvents=1;shape=mxgraph.aws4.iot_thing_humidity_sensor;rounded=1;strokeWidth=4;fontFamily=Helvetica;container=0;" parent="1" vertex="1">
          <mxGeometry x="1813.5" y="591.5" width="50" height="50" as="geometry" />
        </mxCell>
        <mxCell id="p2dUplIc6F6vgKtV86H0-81" value="" style="sketch=0;outlineConnect=0;fontColor=#232F3E;gradientColor=none;strokeColor=#FFFFFF;fillColor=none;dashed=0;verticalLabelPosition=bottom;verticalAlign=top;align=center;html=1;fontSize=18;fontStyle=0;aspect=fixed;shape=mxgraph.aws4.resourceIcon;resIcon=mxgraph.aws4.generic;rounded=1;labelBackgroundColor=none;strokeWidth=3;fontFamily=Helvetica;container=0;" parent="1" vertex="1">
          <mxGeometry x="1904.75" y="587.25" width="58.5" height="58.5" as="geometry" />
        </mxCell>
        <mxCell id="p2dUplIc6F6vgKtV86H0-82" value="" style="rounded=1;whiteSpace=wrap;html=1;labelBackgroundColor=none;strokeColor=#FFFFFF;strokeWidth=3;align=left;verticalAlign=top;fontFamily=Helvetica;fontSize=18;fontColor=#FFFFFF;fillColor=none;arcSize=4;dashed=1;container=0;" parent="1" vertex="1">
          <mxGeometry x="1669.5" y="718.5" width="339" height="158" as="geometry" />
        </mxCell>
        <mxCell id="p2dUplIc6F6vgKtV86H0-84" value="&lt;div style=&quot;text-align: center;&quot;&gt;&lt;span style=&quot;background-color: initial;&quot;&gt;&lt;b&gt;Basement&lt;/b&gt;&lt;/span&gt;&lt;/div&gt;" style="text;whiteSpace=wrap;html=1;fontSize=18;fontFamily=Helvetica;fontColor=#FFFFFF;container=0;" parent="1" vertex="1">
          <mxGeometry x="1846" y="720.5" width="128.5" height="40" as="geometry" />
        </mxCell>
        <mxCell id="p2dUplIc6F6vgKtV86H0-85" value="" style="rounded=1;whiteSpace=wrap;html=1;labelBackgroundColor=none;strokeColor=#DB918D;strokeWidth=3;align=left;verticalAlign=top;fontFamily=Helvetica;fontSize=18;fontColor=#FFFFFF;fillColor=none;arcSize=7;container=0;" parent="1" vertex="1">
          <mxGeometry x="1846" y="750.5" width="150.5" height="113" as="geometry" />
        </mxCell>
        <mxCell id="p2dUplIc6F6vgKtV86H0-86" value="Opcionales" style="text;html=1;strokeColor=none;fillColor=none;align=left;verticalAlign=middle;whiteSpace=wrap;rounded=0;fontSize=18;fontFamily=Helvetica;fontColor=#FFFFFF;container=0;" parent="1" vertex="1">
          <mxGeometry x="1861" y="748.5" width="75" height="30" as="geometry" />
        </mxCell>
        <mxCell id="p2dUplIc6F6vgKtV86H0-87" value="" style="rounded=1;whiteSpace=wrap;html=1;labelBackgroundColor=none;strokeColor=#DB918D;strokeWidth=3;align=left;verticalAlign=top;fontFamily=Helvetica;fontSize=18;fontColor=#FFFFFF;fillColor=none;container=0;" parent="1" vertex="1">
          <mxGeometry x="1865" y="784.5" width="75" height="60" as="geometry" />
        </mxCell>
        <mxCell id="p2dUplIc6F6vgKtV86H0-88" value="" style="sketch=0;outlineConnect=0;fontColor=#232F3E;gradientColor=none;strokeColor=#FFFFFF;fillColor=none;dashed=0;verticalLabelPosition=bottom;verticalAlign=top;align=center;html=1;fontSize=18;fontStyle=0;aspect=fixed;shape=mxgraph.aws4.resourceIcon;resIcon=mxgraph.aws4.generic;rounded=1;labelBackgroundColor=none;strokeWidth=3;fontFamily=Helvetica;container=0;" parent="1" vertex="1">
          <mxGeometry x="1870.75" y="785.25" width="58.5" height="58.5" as="geometry" />
        </mxCell>
        <mxCell id="p2dUplIc6F6vgKtV86H0-90" value="&lt;div style=&quot;text-align: center;&quot;&gt;&lt;span style=&quot;background-color: initial;&quot;&gt;&lt;b&gt;First Floor&lt;/b&gt;&lt;/span&gt;&lt;/div&gt;" style="text;whiteSpace=wrap;html=1;fontSize=18;fontFamily=Helvetica;fontColor=#FFFFFF;container=0;" parent="1" vertex="1">
          <mxGeometry x="1686.5" y="720.5" width="128.5" height="40" as="geometry" />
        </mxCell>
        <mxCell id="p2dUplIc6F6vgKtV86H0-91" value="" style="rounded=1;whiteSpace=wrap;html=1;labelBackgroundColor=none;strokeColor=#DB918D;strokeWidth=3;align=left;verticalAlign=top;fontFamily=Helvetica;fontSize=18;fontColor=#FFFFFF;fillColor=none;arcSize=7;container=0;" parent="1" vertex="1">
          <mxGeometry x="1686.5" y="750.5" width="150.5" height="113" as="geometry" />
        </mxCell>
        <mxCell id="p2dUplIc6F6vgKtV86H0-92" value="Requeridos" style="text;html=1;strokeColor=none;fillColor=none;align=left;verticalAlign=middle;whiteSpace=wrap;rounded=0;fontSize=18;fontFamily=Helvetica;fontColor=#FFFFFF;container=0;" parent="1" vertex="1">
          <mxGeometry x="1701.5" y="748.5" width="75" height="30" as="geometry" />
        </mxCell>
        <mxCell id="p2dUplIc6F6vgKtV86H0-93" value="" style="rounded=1;whiteSpace=wrap;html=1;labelBackgroundColor=none;strokeColor=#DB918D;strokeWidth=3;align=left;verticalAlign=top;fontFamily=Helvetica;fontSize=18;fontColor=#FFFFFF;fillColor=none;container=0;" parent="1" vertex="1">
          <mxGeometry x="1705.5" y="784.5" width="75" height="60" as="geometry" />
        </mxCell>
        <mxCell id="p2dUplIc6F6vgKtV86H0-94" value="" style="sketch=0;outlineConnect=0;dashed=0;verticalLabelPosition=bottom;verticalAlign=top;align=center;html=1;fontSize=18;fontStyle=0;aspect=fixed;pointerEvents=1;shape=mxgraph.aws4.iot_thing_temperature_sensor;rounded=1;labelBackgroundColor=none;strokeWidth=3;fontFamily=Helvetica;container=0;" parent="1" vertex="1">
          <mxGeometry x="1718" y="789.5" width="50" height="50" as="geometry" />
        </mxCell>
        <mxCell id="3aSCwRJMT3F2lno_R7aL-36" value="Bran" style="rounded=1;whiteSpace=wrap;html=1;dashed=1;labelBackgroundColor=none;strokeColor=#FFFFFF;strokeWidth=3;align=center;verticalAlign=bottom;fontFamily=Helvetica;fontSize=18;fontColor=#FFFFFF;fillColor=none;fontStyle=1;container=0;" parent="1" vertex="1">
          <mxGeometry x="1514" y="564" width="110" height="110" as="geometry" />
        </mxCell>
        <mxCell id="3aSCwRJMT3F2lno_R7aL-11" value="" style="sketch=0;outlineConnect=0;fontColor=#232F3E;gradientColor=none;fillColor=#DB918D;strokeColor=#DB918D;dashed=0;verticalLabelPosition=bottom;verticalAlign=top;align=center;html=1;fontSize=18;fontStyle=0;aspect=fixed;pointerEvents=1;shape=mxgraph.aws4.backup_plan;fontFamily=Helvetica;container=0;rotation=0;flipV=0;" parent="1" vertex="1">
          <mxGeometry x="1537.5" y="582" width="63" height="63" as="geometry" />
        </mxCell>
        <mxCell id="3aSCwRJMT3F2lno_R7aL-37" value="DoThing" style="rounded=1;whiteSpace=wrap;html=1;dashed=1;labelBackgroundColor=none;strokeColor=#FFFFFF;strokeWidth=3;align=center;verticalAlign=bottom;fontFamily=Helvetica;fontSize=18;fontColor=#FFFFFF;fillColor=none;fontStyle=1;container=0;" parent="1" vertex="1">
          <mxGeometry x="1514" y="694" width="110" height="110" as="geometry" />
        </mxCell>
        <mxCell id="3aSCwRJMT3F2lno_R7aL-7" value="" style="sketch=0;outlineConnect=0;fontColor=#232F3E;gradientColor=none;fillColor=#DB918D;strokeColor=#DB918D;dashed=0;verticalLabelPosition=bottom;verticalAlign=top;align=center;html=1;fontSize=18;fontStyle=0;aspect=fixed;pointerEvents=1;shape=mxgraph.aws4.action;fontFamily=Helvetica;container=0;rotation=0;flipV=0;" parent="1" vertex="1">
          <mxGeometry x="1537.5" y="708" width="63" height="63" as="geometry" />
        </mxCell>
        <mxCell id="p2dUplIc6F6vgKtV86H0-36" value="Looker B" style="rounded=1;whiteSpace=wrap;html=1;dashed=1;labelBackgroundColor=none;strokeColor=#FFFFFF;strokeWidth=3;align=center;verticalAlign=bottom;fontFamily=Helvetica;fontSize=18;fontColor=#FFFFFF;fillColor=none;fontStyle=1;container=0;flipH=0;flipV=1;" parent="1" vertex="1">
          <mxGeometry x="1375" y="692.5" width="110" height="220" as="geometry" />
        </mxCell>
        <mxCell id="9AoiroFoVsxQzHGqrJnJ-85" value="" style="sketch=0;outlineConnect=0;fontColor=#FFFFFF;gradientColor=none;fillColor=#DB918D;strokeColor=none;dashed=0;verticalLabelPosition=bottom;verticalAlign=top;align=center;html=1;fontSize=18;fontStyle=0;aspect=fixed;shape=mxgraph.aws4.application_discovery_service_aws_agentless_collector;rotation=0;container=0;flipV=0;" parent="1" vertex="1">
          <mxGeometry x="1394" y="476.5" width="72" height="72" as="geometry" />
        </mxCell>
        <mxCell id="3aSCwRJMT3F2lno_R7aL-10" value="" style="sketch=0;outlineConnect=0;fontColor=#232F3E;gradientColor=none;fillColor=#DB918D;strokeColor=none;dashed=0;verticalLabelPosition=bottom;verticalAlign=top;align=center;html=1;fontSize=18;fontStyle=0;aspect=fixed;shape=mxgraph.aws4.mainframe_modernization_analyzer;rotation=0;container=0;flipV=0;" parent="1" vertex="1">
          <mxGeometry x="1398.5" y="576.5" width="63" height="63" as="geometry" />
        </mxCell>
        <mxCell id="p2dUplIc6F6vgKtV86H0-106" value="&lt;div style=&quot;&quot;&gt;&lt;span style=&quot;background-color: initial;&quot;&gt;&lt;b&gt;Coherent&lt;/b&gt;&lt;/span&gt;&lt;/div&gt;" style="text;whiteSpace=wrap;html=1;fontSize=18;fontFamily=Helvetica;fontColor=#FFFFFF;container=0;align=right;" parent="1" vertex="1">
          <mxGeometry x="1867" y="520.5" width="126" height="40" as="geometry" />
        </mxCell>
        <mxCell id="p2dUplIc6F6vgKtV86H0-107" value="&lt;div style=&quot;&quot;&gt;&lt;span style=&quot;background-color: initial;&quot;&gt;&lt;b&gt;Coherent&lt;/b&gt;&lt;/span&gt;&lt;/div&gt;" style="text;whiteSpace=wrap;html=1;fontSize=18;fontFamily=Helvetica;fontColor=#FFFFFF;container=0;align=right;" parent="1" vertex="1">
          <mxGeometry x="1884" y="489" width="126" height="40" as="geometry" />
        </mxCell>
        <mxCell id="p2dUplIc6F6vgKtV86H0-108" value="&lt;div style=&quot;&quot;&gt;&lt;b&gt;Coh.&lt;/b&gt;&lt;/div&gt;" style="text;whiteSpace=wrap;html=1;fontSize=18;fontFamily=Helvetica;fontColor=#FFFFFF;container=0;align=right;" parent="1" vertex="1">
          <mxGeometry x="1746" y="720.5" width="88" height="40" as="geometry" />
        </mxCell>
        <mxCell id="p2dUplIc6F6vgKtV86H0-109" value="&lt;div style=&quot;&quot;&gt;&lt;b&gt;Coh.&lt;/b&gt;&lt;/div&gt;" style="text;whiteSpace=wrap;html=1;fontSize=18;fontFamily=Helvetica;fontColor=#FFFFFF;container=0;align=right;" parent="1" vertex="1">
          <mxGeometry x="1919.5" y="719.5" width="77" height="40" as="geometry" />
        </mxCell>
        <mxCell id="p2dUplIc6F6vgKtV86H0-110" value="&lt;div style=&quot;&quot;&gt;&lt;span style=&quot;background-color: initial;&quot;&gt;&lt;b&gt;Coherent&lt;/b&gt;&lt;/span&gt;&lt;/div&gt;" style="text;whiteSpace=wrap;html=1;fontSize=18;fontFamily=Helvetica;fontColor=#FFFFFF;container=0;align=right;" parent="1" vertex="1">
          <mxGeometry x="1884" y="686" width="126" height="40" as="geometry" />
        </mxCell>
        <mxCell id="p2dUplIc6F6vgKtV86H0-37" value="" style="sketch=0;outlineConnect=0;fontColor=#FFFFFF;gradientColor=none;fillColor=#DB918D;strokeColor=none;dashed=0;verticalLabelPosition=bottom;verticalAlign=top;align=center;html=1;fontSize=18;fontStyle=0;aspect=fixed;shape=mxgraph.aws4.application_discovery_service_aws_agentless_collector;rotation=-180;container=0;flipV=1;flipH=0;" parent="1" vertex="1">
          <mxGeometry x="1394" y="803.5" width="72" height="72" as="geometry" />
        </mxCell>
        <mxCell id="p2dUplIc6F6vgKtV86H0-38" value="" style="sketch=0;outlineConnect=0;fontColor=#232F3E;gradientColor=none;fillColor=#DB918D;strokeColor=none;dashed=0;verticalLabelPosition=bottom;verticalAlign=top;align=center;html=1;fontSize=18;fontStyle=0;aspect=fixed;shape=mxgraph.aws4.mainframe_modernization_analyzer;rotation=-180;container=0;flipV=1;flipH=0;" parent="1" vertex="1">
          <mxGeometry x="1399" y="712.5" width="63" height="63" as="geometry" />
        </mxCell>
        <mxCell id="i37C5_9v5fxRi65LZwZq-4" value="" style="group" parent="1" vertex="1" connectable="0">
          <mxGeometry x="1008.5" y="586.5" width="313.5" height="115" as="geometry" />
        </mxCell>
        <mxCell id="WaaS-qGKVErQEOPKYESH-18" value="" style="rounded=1;whiteSpace=wrap;html=1;labelBackgroundColor=none;strokeColor=#DB918D;strokeWidth=3;align=left;verticalAlign=top;fontFamily=Helvetica;fontSize=18;fontColor=#FFFFFF;fillColor=none;arcSize=7;container=0;dashed=1;" parent="i37C5_9v5fxRi65LZwZq-4" vertex="1">
          <mxGeometry y="2" width="307" height="113" as="geometry" />
        </mxCell>
        <mxCell id="WaaS-qGKVErQEOPKYESH-31" value="Combo-sense" style="text;html=1;strokeColor=none;fillColor=none;align=left;verticalAlign=middle;whiteSpace=wrap;rounded=0;fontSize=18;fontFamily=Helvetica;fontColor=#FFFFFF;container=0;" parent="i37C5_9v5fxRi65LZwZq-4" vertex="1">
          <mxGeometry x="15" width="177" height="30" as="geometry" />
        </mxCell>
        <mxCell id="p2dUplIc6F6vgKtV86H0-4" value="" style="rounded=1;whiteSpace=wrap;html=1;labelBackgroundColor=none;strokeColor=#DB918D;strokeWidth=3;align=left;verticalAlign=top;fontFamily=Helvetica;fontSize=18;fontColor=#FFFFFF;fillColor=none;container=0;dashed=1;" parent="i37C5_9v5fxRi65LZwZq-4" vertex="1">
          <mxGeometry x="212.5" y="36" width="75" height="60" as="geometry" />
        </mxCell>
        <mxCell id="i37C5_9v5fxRi65LZwZq-2" style="edgeStyle=orthogonalEdgeStyle;shape=connector;curved=0;rounded=1;orthogonalLoop=1;jettySize=auto;html=1;exitX=1;exitY=0.5;exitDx=0;exitDy=0;entryX=0;entryY=0.5;entryDx=0;entryDy=0;labelBackgroundColor=default;strokeColor=#DB918D;strokeWidth=4;align=center;verticalAlign=middle;fontFamily=Helvetica;fontSize=11;fontColor=default;endArrow=none;endFill=0;dashed=1;" parent="i37C5_9v5fxRi65LZwZq-4" source="p2dUplIc6F6vgKtV86H0-2" target="p2dUplIc6F6vgKtV86H0-4" edge="1">
          <mxGeometry relative="1" as="geometry" />
        </mxCell>
        <mxCell id="p2dUplIc6F6vgKtV86H0-2" value="" style="rounded=1;whiteSpace=wrap;html=1;labelBackgroundColor=none;strokeColor=#DB918D;strokeWidth=3;align=left;verticalAlign=top;fontFamily=Helvetica;fontSize=18;fontColor=#FFFFFF;fillColor=none;container=0;dashed=1;" parent="i37C5_9v5fxRi65LZwZq-4" vertex="1">
          <mxGeometry x="117" y="36" width="75" height="60" as="geometry" />
        </mxCell>
        <mxCell id="i37C5_9v5fxRi65LZwZq-1" style="edgeStyle=orthogonalEdgeStyle;shape=connector;curved=0;rounded=1;orthogonalLoop=1;jettySize=auto;html=1;entryX=0;entryY=0.5;entryDx=0;entryDy=0;labelBackgroundColor=default;strokeColor=#DB918D;strokeWidth=4;align=center;verticalAlign=middle;fontFamily=Helvetica;fontSize=11;fontColor=default;endArrow=none;endFill=0;dashed=1;" parent="i37C5_9v5fxRi65LZwZq-4" source="WaaS-qGKVErQEOPKYESH-28" target="p2dUplIc6F6vgKtV86H0-2" edge="1">
          <mxGeometry relative="1" as="geometry" />
        </mxCell>
        <mxCell id="WaaS-qGKVErQEOPKYESH-28" value="" style="rounded=1;whiteSpace=wrap;html=1;labelBackgroundColor=none;strokeColor=#DB918D;strokeWidth=3;align=left;verticalAlign=top;fontFamily=Helvetica;fontSize=18;fontColor=#FFFFFF;fillColor=none;container=0;dashed=1;" parent="i37C5_9v5fxRi65LZwZq-4" vertex="1">
          <mxGeometry x="19" y="36" width="75" height="60" as="geometry" />
        </mxCell>
        <mxCell id="WaaS-qGKVErQEOPKYESH-81" value="" style="sketch=0;outlineConnect=0;dashed=0;verticalLabelPosition=bottom;verticalAlign=top;align=center;html=1;fontSize=18;fontStyle=0;aspect=fixed;pointerEvents=1;shape=mxgraph.aws4.iot_thing_temperature_sensor;rounded=1;labelBackgroundColor=none;strokeWidth=3;fontFamily=Helvetica;container=0;fillColor=#666666;" parent="i37C5_9v5fxRi65LZwZq-4" vertex="1">
          <mxGeometry x="31.5" y="41" width="50" height="50" as="geometry" />
        </mxCell>
        <mxCell id="p2dUplIc6F6vgKtV86H0-11" value="" style="sketch=0;outlineConnect=0;fontColor=#232F3E;gradientColor=none;fillColor=#666666;strokeColor=none;dashed=0;verticalLabelPosition=bottom;verticalAlign=top;align=center;html=1;fontSize=12;fontStyle=0;aspect=fixed;pointerEvents=1;shape=mxgraph.aws4.iot_thing_humidity_sensor;rounded=1;strokeWidth=4;fontFamily=Helvetica;container=0;" parent="i37C5_9v5fxRi65LZwZq-4" vertex="1">
          <mxGeometry x="129.5" y="41" width="50" height="50" as="geometry" />
        </mxCell>
        <mxCell id="WaaS-qGKVErQEOPKYESH-98" value="" style="sketch=0;outlineConnect=0;fontColor=#232F3E;gradientColor=none;strokeColor=#666666;fillColor=none;dashed=0;verticalLabelPosition=bottom;verticalAlign=top;align=center;html=1;fontSize=18;fontStyle=0;aspect=fixed;shape=mxgraph.aws4.resourceIcon;resIcon=mxgraph.aws4.generic;rounded=1;labelBackgroundColor=none;strokeWidth=3;fontFamily=Helvetica;container=0;" parent="i37C5_9v5fxRi65LZwZq-4" vertex="1">
          <mxGeometry x="220.75" y="36.75" width="58.5" height="58.5" as="geometry" />
        </mxCell>
      </root>
    </mxGraphModel>
  </diagram>
</mxfile>
